<svg width="147" height="38" viewBox="0 0 147 38" fill="none" xmlns="http://www.w3.org/2000/svg">
<g id="Group">
<path id="Vector" d="M116.128 11.8873V37.7565H106.864V11.8873H116.128ZM128.073 11.8364L132.305 17.9849L136.65 11.8364H146.199L136.936 24.1331L147 37.7058H136.765L131.676 30.6875L126.587 37.7058H117.037L127.044 24.5392L117.838 11.8364H128.073ZM94.7428 11.0193C101.706 11.0193 103.793 15.8515 103.834 21.1823L103.834 21.344V37.5846H94.5713L94.5711 23.7325L94.5696 23.5242L94.5664 23.32L94.5615 23.1199L94.5549 22.9238C94.5536 22.8915 94.5523 22.8593 94.5509 22.8273L94.5415 22.6373C94.538 22.5747 94.5342 22.5127 94.5301 22.4514L94.5167 22.2697C94.5143 22.2397 94.5118 22.2099 94.5092 22.1803L94.4926 22.0047L94.4738 21.8332C94.2113 19.6021 93.3539 18.4438 91.1404 18.4438C88.5158 18.4438 87.3785 20.2877 87.0964 23.2275L87.0779 23.4368C87.0437 23.859 87.0262 24.3028 87.0237 24.7659L87.0234 37.5846H77.7602V23.8381L77.7594 23.6279C77.7591 23.5931 77.7588 23.5586 77.7583 23.5242L77.7549 23.32L77.7497 23.1199L77.7425 22.9238L77.7334 22.7318C77.7317 22.7001 77.73 22.6686 77.7281 22.6373L77.716 22.4514L77.7017 22.2697L77.6852 22.092C77.4446 19.6918 76.5696 18.4438 74.2721 18.4438C71.2718 18.4438 70.177 20.9451 70.1554 24.7659L70.1551 37.5846H60.8919V11.7154H70.1551V15.6016C71.5274 12.7596 74.2721 11.0193 78.1032 11.0193C82.6205 11.0193 84.9648 13.1074 86.0514 16.1237C87.4238 13.2235 90.4543 11.0193 94.7428 11.0193ZM45.8137 10.2023C54.2486 10.2023 58.7602 16.001 58.8496 22.9269L58.8509 23.1371V25.747H40.9534C41.1821 28.9373 43.4694 30.4453 46.2713 30.4453C48.7546 30.4453 50.3465 29.5978 51.2122 27.6238L51.246 27.5453L58.6794 28.2412C57.3643 34.1576 52.6755 37.4637 45.9281 37.4637C37.7514 37.4637 31.9189 32.4754 31.9189 24.239C31.9189 16.0607 37.8656 10.2023 45.8137 10.2023ZM17.3314 0.806152C26.6743 0.806152 31.3171 5.2831 31.3171 12.4346C31.3171 17.7836 28.05 21.2721 23.6364 21.8535C27.3621 22.6094 29.5401 24.7607 29.9414 29.005L29.9995 29.7856L30.0502 30.5152L30.094 31.1978L30.1244 31.7125L30.1571 32.3197L30.1741 32.6663L30.1982 33.2168L30.2177 33.7368L30.2274 34.0357L30.2404 34.5146L30.2517 35.0622L30.2558 35.3268L30.2631 36.0936L30.2655 36.8937L30.2656 37.3721H20.6309C20.6309 37.1702 20.6324 36.9758 20.6348 36.7851L20.6406 36.4075L20.6572 35.4932L20.6615 35.1866L20.6641 34.8695C20.6644 34.8156 20.6646 34.7611 20.6648 34.706L20.6643 34.3986L20.6615 34.0763L20.6576 33.8233L20.6497 33.4691L20.6382 33.0934L20.6229 32.6941L20.6032 32.2686L20.5917 32.0453L20.572 31.6964L20.5493 31.3299L20.5142 30.812L20.4839 30.4004C20.2175 26.5073 18.662 25.4302 15.8176 25.2984L15.6323 25.2912L15.4435 25.2865C15.3799 25.2854 15.3157 25.2846 15.251 25.2842L0 25.284V17.6674H15.612C19.7388 17.6674 21.8022 16.3936 21.8022 13.0214C21.8022 10.0563 19.7388 8.25919 15.612 8.25919H0V0.806152H17.3314ZM10.1874 31.6941C11.4515 31.6941 11.9804 32.4007 12.1688 33.0771L12.189 33.155C12.1922 33.1679 12.1952 33.1808 12.1981 33.1937L12.214 33.2707L12.2273 33.3468C12.2293 33.3594 12.2312 33.3719 12.233 33.3844L12.2425 33.4587L12.2497 33.5315C12.2507 33.5434 12.2516 33.5554 12.2524 33.5672L12.2563 33.6372C12.2568 33.6487 12.2572 33.6601 12.2575 33.6714L12.2584 33.738V37.3721H0V31.6941H10.1874ZM45.6994 16.9306C43.3802 16.9306 42.0698 18.0598 41.4427 19.7128L41.3958 19.8409L41.3516 19.9711C41.3086 20.1023 41.2697 20.2363 41.2345 20.3731L41.2006 20.5106C41.1788 20.6029 41.1587 20.6964 41.1402 20.7908L41.1137 20.9333C41.1095 20.9572 41.1054 20.9811 41.1014 21.0052L41.0784 21.1499L41.0679 21.2228H50.0451C49.9307 18.9027 48.4441 16.9306 45.6994 16.9306ZM116.185 1.21459V9.45114H106.807V1.21459H116.185Z" fill="#121212"/>
</g>
</svg>
