<svg width="185" height="39" viewBox="0 0 185 39" fill="none" xmlns="http://www.w3.org/2000/svg">
<g id="Group">
<path id="Vector" d="M38.608 27.2718L28.1915 38.6478H9.0251L19.3379 27.2718H38.608ZM72.8366 9.19807C79.8595 9.19807 82.2845 13.6534 82.4591 17.0673H76.3286C76.1929 15.6014 75.0677 14.2706 72.7977 14.2706C70.7414 14.2706 69.5774 15.2543 69.5774 16.5465C69.5774 20.4618 82.556 16.5465 82.556 26.1129C82.556 30.2982 78.967 33.5963 72.6231 33.5963C65.2511 33.5772 62.7484 29.8355 62.4381 25.4765H68.8789C68.9758 27.0387 70.1399 28.5046 72.7783 28.5046C75.2034 28.5046 76.445 27.656 76.445 26.3637C76.445 22.4485 63.4275 26.1323 63.4275 16.8937C63.4275 12.6698 67.0553 9.19807 72.8366 9.19807ZM155.831 9.19807C163.125 9.19807 166.579 14.3092 167.025 18.2824H160.487C160.002 16.2765 158.12 14.8107 155.792 14.8107C152.397 14.8107 150.418 17.4723 150.418 21.3876C150.418 25.303 152.397 27.9646 155.792 27.9646C158.12 27.9646 160.002 26.4986 160.487 24.4928H167.025C166.579 28.4467 163.125 33.5772 155.831 33.5772C149.021 33.5772 144.055 28.331 144.055 21.3876C144.055 14.4442 149.021 9.19807 155.831 9.19807ZM106.244 9.17876C113.189 9.17876 117.884 14.4249 117.884 21.3297C117.884 22.3518 117.787 23.2005 117.787 23.2005H100.773C101.219 26.4022 103.276 28.1381 106.457 28.1381C108.378 28.1381 110.221 27.2894 110.978 25.5922H117.38C115.983 30.3176 111.695 33.5578 106.283 33.5578C99.3373 33.5578 94.468 28.4853 94.468 21.3297C94.468 14.4249 99.2985 9.17876 106.244 9.17876ZM90.8788 4.29912V9.71884H95.5543V14.8685H90.8788V33.0371H84.5156V4.29912H90.8788ZM133.075 9.19807C138.72 9.19807 141.708 12.9398 141.708 18.4945V33.0371H135.344V19.1889C135.344 16.4694 134.18 14.5985 131.367 14.5985C128.283 14.5985 126.575 16.5658 126.575 19.671V33.0178H120.212V9.71882H126.09V12.5733C127.157 10.5675 129.582 9.19807 133.075 9.19807ZM175.755 9.7188V33.0371H169.391V9.7188H175.755ZM185.513 1.77246V33.0369H179.15V1.77246H185.513ZM50.8998 13.7892L40.4888 25.1651H0.900513L11.3116 13.7892H50.8998ZM106.166 14.2706C103.276 14.2706 101.394 16.0064 100.851 18.6681H111.501C111.055 16.045 109.134 14.2706 106.166 14.2706ZM42.7747 0.306641L32.4062 11.6826H13.1919L23.5758 0.306641H42.7747ZM172.554 0.306641C174.785 0.306641 176.395 1.90748 176.395 4.12552C176.395 6.34353 174.785 7.9058 172.554 7.9058C170.342 7.9058 168.712 6.36284 168.712 4.12552C168.712 1.90748 170.323 0.306641 172.554 0.306641Z" fill="#393939"/>
</g>
</svg>
