<svg width="185" height="40" viewBox="0 0 185 40" fill="none" xmlns="http://www.w3.org/2000/svg">
<g id="Group">
<path id="Vector" d="M45.8746 20.1573V30.0791L30.4122 40.0033V30.0791L45.8746 20.1573ZM30.4122 20.1573V30.0791L14.9497 40.0033V30.0791L30.4122 20.1573ZM14.9497 20.1573V30.0791L-0.512726 40.0033V30.0791L14.9497 20.1573ZM95.3864 18.5644C97.1365 21.7455 96.6283 25.7319 94.1398 28.3429C92.7688 29.7083 90.9395 30.4805 89.0299 30.4997C87.6505 30.5333 86.3075 30.0431 85.2581 29.1229V37.1534H81.285V15.16H85.1483V16.3159C86.2381 15.3793 87.6158 14.8698 89.0368 14.878C91.6423 14.8542 94.0625 16.2592 95.3864 18.5644ZM109.39 16.431V15.1506H113.159L113.15 30.1543H109.419V28.8738C108.351 29.9522 106.902 30.5389 105.405 30.4997C102.788 30.5209 100.365 29.0816 99.0782 26.7405C98.3714 25.512 98.0132 24.1049 98.0443 22.6783C98.0443 19.6498 99.5654 17.1194 101.816 15.8366C102.919 15.1937 104.167 14.8599 105.435 14.8686C106.902 14.8308 108.325 15.3927 109.39 16.431ZM153.576 14.8663C156.465 14.8663 158.625 15.9917 160.054 18.273L157.012 20.209C156.161 18.9591 155.036 18.3294 153.606 18.3294C151.296 18.3294 149.745 20.1737 149.745 22.7347C149.745 25.2956 151.234 26.9825 153.576 26.9825C154.995 27.0116 156.336 26.323 157.165 25.1405L160.084 27.1235C158.686 29.1863 156.314 30.4668 153.606 30.4668C150.747 30.4668 148.224 29.0923 146.824 26.7076C145.779 24.8898 145.489 22.7162 146.022 20.6768C146.554 18.6374 147.863 16.904 149.654 15.8672C150.859 15.2007 152.208 14.8565 153.576 14.8663ZM176.502 14.841L176.679 14.8428C181.089 14.8428 184.099 18.031 184.099 22.9978C184.102 23.1544 184.097 23.311 184.084 23.467L184.069 23.6228H172.847C173.152 25.8078 174.62 26.9637 176.679 26.9637C178.049 26.9957 179.36 26.3979 180.256 25.3376L180.338 25.2369L183.127 27.1211L183.04 27.245C181.576 29.2911 179.302 30.4315 176.679 30.4315C174.398 30.4315 172.36 29.5622 171.052 28.1525C169.688 26.6791 168.936 24.7184 168.954 22.6853C168.954 19.779 170.26 17.3144 172.635 15.9048C173.761 15.2394 175.03 14.8753 176.325 14.8433L176.502 14.841ZM63.1006 14.8827C65.1089 14.8827 66.5682 15.5711 67.4191 16.9456C69.0309 15.5704 70.7952 14.8827 72.712 14.8827C76.1499 14.878 78.0049 16.9479 78.0049 20.7517V30.1496H74.0501V21.0642C74.0501 19.2222 73.1992 18.3153 71.5569 18.3153C70.337 18.3153 69.2696 18.8463 68.3546 19.9083V30.1543H64.4089V21.0642C64.4089 19.2222 63.5878 18.3153 61.9455 18.3153C60.6989 18.3153 59.6353 18.8768 58.7226 20.0022V30.1543H54.7381V15.16H58.4481V16.5697C59.754 15.4564 61.4037 14.8582 63.1006 14.8827ZM125.012 14.878V18.7523C124.655 18.6555 124.286 18.6135 123.916 18.6278C122.601 18.6651 121.367 19.2928 120.54 20.3453V30.1543H116.558V15.16H120.268V16.5344C121.453 15.315 122.761 14.878 125.012 14.878ZM133.734 10.1627V15.16H137.018V18.5338H133.734V30.1543H129.777V18.5338H126.709V15.16H129.777V10.1627H133.734ZM143.336 15.16V30.1543H139.351V15.16H143.336ZM166.651 7.69337V30.1543H162.698V7.69337H166.651ZM105.972 18.3153C103.843 18.3153 102.02 20.0022 102.02 22.6877C102.02 25.3731 103.813 27.0318 105.943 27.0318C107.191 27.0763 108.394 26.5496 109.227 25.594V19.7837C108.398 18.8365 107.212 18.3015 105.972 18.3153ZM88.5473 18.3153C87.2681 18.2965 86.0454 18.8557 85.2032 19.8448V25.5634C86.0133 26.5061 87.1814 27.0417 88.4055 27.0318C90.6425 27.0318 92.4358 25.3755 92.4358 22.6266C92.4358 19.9717 90.6059 18.3153 88.5473 18.3153ZM176.777 18.1861C174.901 18.1861 173.608 19.1133 173.043 20.8246L173.007 20.9373H180.274C179.797 19.1345 178.681 18.2275 176.894 18.1897L176.777 18.1884V18.1861ZM30.4122 0.306641V10.2308L14.9497 20.155V10.2308L30.4122 0.306641ZM45.8746 0.306641V10.2308L30.4122 20.155V10.2308L45.8746 0.306641ZM14.9497 0.306641V10.2308L-0.512726 20.155V10.2308L14.9497 0.306641ZM143.428 9.03727V13.1606H139.26V9.03727H143.428Z" fill="#393939"/>
</g>
</svg>
