<svg width="185" height="41" viewBox="0 0 185 41" fill="none" xmlns="http://www.w3.org/2000/svg">
<g id="Group">
<path id="Vector" d="M19.2749 3.45182C19.6467 3.76438 19.706 4.33319 19.4073 4.72229C19.1086 5.11139 18.5651 5.17343 18.1933 4.86087C15.9424 2.96851 14.0674 2.34373 12.9109 2.96155C11.5651 3.67984 11.0431 5.99085 11.3148 9.21577L11.3557 9.65112C11.3785 9.87144 11.4048 10.0957 11.4347 10.3237L11.499 10.7845C11.5789 11.3235 11.6776 11.8816 11.7949 12.4566C13.4159 12.1937 15.1606 12.0219 16.9928 11.9502C17.7875 10.8816 18.5956 9.87858 19.4072 8.94982L19.8139 8.49093C20.8312 7.35946 21.8515 6.34674 22.8555 5.47015L23.2562 5.12681C26.9203 2.04687 30.3306 0.828174 32.5361 2.32672C34.4573 3.63113 34.9722 6.58599 34.2587 10.5457C34.1703 11.0362 33.7188 11.3588 33.2501 11.2663C32.7815 11.1738 32.4733 10.7012 32.5616 10.2108C33.1592 6.89461 32.7658 4.63706 31.5959 3.84278C30.0755 2.80971 27.2502 3.999 24.0644 6.77642L23.709 7.09153C23.5306 7.25232 23.3512 7.41794 23.171 7.58827L22.8094 7.93521C22.4468 8.28838 22.0813 8.66013 21.7141 9.04961L21.3465 9.44497C21.2851 9.51184 21.2237 9.57919 21.1623 9.64702L20.7936 10.0597L20.4244 10.4838L20.0552 10.919C19.9321 11.0659 19.8091 11.2146 19.6862 11.3651L19.3176 11.822L19.2457 11.913C20.1048 11.9178 20.9789 11.9438 21.8646 11.992L22.2084 12.0118L22.8917 12.0577C23.4586 12.0993 24.0193 12.1495 24.5727 12.2078L25.2333 12.2818C25.3428 12.2947 25.452 12.308 25.5609 12.3217L26.2105 12.4072C26.7487 12.4816 27.2787 12.5639 27.7998 12.6538L28.4208 12.7652L29.0328 12.8838L29.6355 13.0094C31.6286 13.4395 33.461 13.9841 35.0759 14.6224L35.5538 14.8167C39.7949 16.5903 42.4085 19.0316 42.2744 21.7302C42.1632 23.961 40.2525 25.8025 37.0498 27.1222C36.6061 27.305 36.1047 27.0768 35.93 26.6124C35.7553 26.148 35.9734 25.6233 36.4172 25.4405C39.0581 24.3523 40.4828 22.9792 40.5497 21.6362C40.6352 19.9167 38.6695 18.1385 35.3974 16.7042L34.9903 16.5303C34.7146 16.4155 34.4304 16.3032 34.138 16.1935L33.6936 16.0309C33.5434 15.9774 33.3913 15.9245 33.2372 15.8724L32.7694 15.7181L32.2902 15.5683C32.2095 15.5437 32.1282 15.5193 32.0466 15.4951L31.5512 15.3523C31.4677 15.3288 31.3839 15.3056 31.2995 15.2826L30.7886 15.1471C30.2725 15.014 29.7414 14.8886 29.1967 14.7715L28.6475 14.6572C28.5552 14.6387 28.4625 14.6203 28.3695 14.6023L27.8072 14.4967L27.2365 14.3971C27.1407 14.381 27.0446 14.3651 26.9481 14.3496L26.3655 14.2592C26.17 14.2302 25.9732 14.2022 25.7753 14.1753L25.1778 14.0979L24.5733 14.0273C24.2693 13.9937 23.9629 13.9626 23.6541 13.9343L23.0335 13.8811C22.8257 13.8646 22.6168 13.8494 22.407 13.8353L21.7749 13.797L21.1423 13.7665L20.5146 13.744C19.7853 13.7224 19.0664 13.717 18.3604 13.7268L17.8668 13.7363L17.673 14.0058C17.5524 14.175 17.4321 14.3459 17.3123 14.5183L16.9539 15.0404C16.5373 15.6549 16.1262 16.2884 15.7225 16.9395C15.6071 17.1255 15.4933 17.3116 15.381 17.4975L15.0485 18.0552C14.6944 18.6571 14.3562 19.2577 14.0343 19.8551C14.0643 19.9303 14.0943 20.0061 14.1245 20.082L14.3592 20.6622C14.3991 20.7592 14.4393 20.8562 14.48 20.9534L14.7283 21.538L14.9856 22.1249L15.252 22.7139L15.5273 23.3047L15.8116 23.8968L16.1027 24.4853L16.3979 25.0655L16.6971 25.6371C16.7473 25.7316 16.7976 25.8257 16.8481 25.9195L17.1527 26.4777C17.2548 26.6622 17.3575 26.8452 17.4607 27.0267L17.7716 27.5663C17.8757 27.7445 17.9803 27.9212 18.0853 28.0962L18.4015 28.6163L18.7199 29.1263C18.9861 29.547 19.2543 29.957 19.5239 30.3557L19.848 30.8286C20.0644 31.1403 20.2815 31.4445 20.4989 31.741L20.8252 32.18L21.1518 32.6073C21.2062 32.6775 21.2606 32.7472 21.315 32.8164L21.6414 33.2256L21.9673 33.6225C22.2929 34.0131 22.6174 34.385 22.9397 34.737L23.2611 35.0824L23.5808 35.4143C23.7401 35.5769 23.8987 35.7343 24.0563 35.8865L24.3704 36.1839C24.5267 36.329 24.6821 36.4688 24.8362 36.6032L25.1429 36.8646C27.2276 38.6007 29.0749 39.3018 30.3013 38.6471C31.453 38.0326 32.0026 36.2383 31.962 33.6938L31.9515 33.3065C31.9465 33.1756 31.9401 33.0429 31.9322 32.9084L31.904 32.4996C31.8931 32.3616 31.8808 32.2218 31.867 32.0805L31.8212 31.6514C31.8128 31.5791 31.8041 31.5064 31.795 31.4332L31.7359 30.9898L31.6681 30.5373L31.5915 30.0759C31.524 29.6878 31.4474 29.2908 31.3616 28.8858L31.2544 28.396L31.1383 27.8988C31.1183 27.8153 31.0978 27.7316 31.0771 27.6475L30.9479 27.1398L30.8101 26.6255C30.7864 26.5393 30.7623 26.4528 30.7379 26.366L30.587 25.8425L30.4274 25.3132C30.3454 25.0471 30.2602 24.779 30.1717 24.509L29.9904 23.9667L29.8005 23.4196C29.6709 23.0535 29.5356 22.6844 29.3946 22.3129L29.1786 21.7538L28.9541 21.1914C28.916 21.0974 28.8775 21.0033 28.8386 20.909L28.6011 20.3422L28.355 19.7727C28.3133 19.6776 28.2712 19.5824 28.2288 19.4872L27.9698 18.9145C27.9259 18.8189 27.8817 18.7232 27.8371 18.6275C27.6281 18.1788 27.8062 17.6379 28.2349 17.4192C28.6636 17.2005 29.1805 17.3869 29.3895 17.8355L29.6759 18.4596C29.7698 18.6674 29.8621 18.8748 29.9529 19.0819L30.2205 19.7021C30.4834 20.3211 30.732 20.9363 30.9662 21.5464L31.1955 22.1546C31.2329 22.2557 31.2699 22.3566 31.3065 22.4574L31.5212 23.0598C31.5562 23.1598 31.5907 23.2597 31.6249 23.3594L31.8249 23.9552C31.9549 24.3508 32.0783 24.7433 32.1951 25.132L32.3652 25.7124C34.4015 32.8347 34.1402 38.6274 31.0859 40.2572C28.6152 41.576 25.1123 39.7443 21.5862 35.8811L21.2214 35.4743C20.9782 35.1983 20.7351 34.9128 20.4923 34.6182L20.1285 34.1695C19.1593 32.9551 18.199 31.5978 17.2687 30.1212L16.9213 29.5619C16.0565 28.15 15.2204 26.6357 14.4305 25.0384L14.2732 24.7179C14.1687 24.5035 14.0658 24.2892 13.9646 24.0751L13.6657 23.4336C13.4305 22.9207 13.2047 22.4093 12.9885 21.9003L12.8495 22.1898C12.8064 22.2801 12.7638 22.3703 12.7216 22.4604L12.4731 22.9987L12.2342 23.5332L12.0049 24.0633C11.9674 24.1513 11.9304 24.2391 11.8938 24.3267L11.6791 24.8498C11.6441 24.9366 11.6095 25.0232 11.5753 25.1095L11.3752 25.6248C11.3427 25.7102 11.3106 25.7953 11.2789 25.8803L11.0936 26.3869C11.0635 26.4708 11.0338 26.5545 11.0046 26.6379L10.8342 27.135L10.6737 27.6255C10.596 27.8689 10.5221 28.1097 10.4519 28.3477L10.3167 28.8197L10.1916 29.2837C10.1716 29.3603 10.1521 29.4366 10.1329 29.5126L10.0232 29.964C9.93606 30.3365 9.85964 30.6998 9.79409 31.0529L9.72066 31.4717C9.23185 34.4374 9.55042 36.6246 10.7614 37.4471C11.9812 38.2753 14.2429 37.6453 17.0338 35.5367C17.4205 35.2445 17.9602 35.3357 18.2393 35.7404C18.5185 36.1451 18.4313 36.7099 18.0447 37.0021C14.737 39.5011 11.8132 40.3156 9.82141 38.9633C7.41495 37.3289 7.24579 33.0072 8.84747 27.6309L9.01353 27.0898C9.12814 26.7268 9.25056 26.3594 9.38064 25.988L9.58148 25.428C9.8569 24.6775 10.1627 23.9122 10.4978 23.1358L10.7545 22.5515L11.0222 21.9635C11.3631 21.2269 11.7293 20.4825 12.1197 19.7332C12.0681 19.5947 12.0167 19.4565 11.9661 19.3187L11.7427 18.698C11.4517 17.8734 11.1883 17.0603 10.9531 16.2629L10.782 15.6679C10.6764 15.2906 10.5773 14.9171 10.4848 14.5479L10.1684 14.6164L9.69877 14.7245L9.24054 14.8379C9.16514 14.8573 9.09022 14.8768 9.0158 14.8966L8.57523 15.0179L8.14684 15.1441C8.00611 15.187 7.86745 15.2308 7.73093 15.2753L7.32783 15.4112C7.19564 15.4573 7.06563 15.5042 6.93786 15.5518L6.56133 15.6969C3.9734 16.728 2.39698 18.0811 2.32373 19.5549C2.25679 20.8981 3.53763 22.4186 6.05681 23.7875C6.48005 24.0175 6.645 24.5631 6.42524 25.006C6.20547 25.4489 5.68421 25.6216 5.26097 25.3916C2.20587 23.7314 0.487882 21.6919 0.599078 19.4609C0.753659 16.3506 4.50508 13.9766 10.085 12.7779C8.95565 7.13062 9.53043 2.73693 12.126 1.35163C14.0445 0.326693 16.551 1.16188 19.2749 3.45182ZM132.515 6.68666C140.863 6.68666 146.337 13.6521 146.337 21.5235V21.6068C146.337 29.4788 140.784 36.5264 132.436 36.5264C124.087 36.5264 118.612 29.5616 118.612 21.689V21.6068C118.612 13.7348 124.165 6.68666 132.515 6.68666ZM160.434 7.05752C160.868 7.05752 161.183 7.30515 161.458 7.6766L172.21 24.2445L182.962 7.6766C183.198 7.30515 183.553 7.05752 183.985 7.05752H184.183C184.733 7.05752 185.206 7.55279 185.206 8.12903V35.1245C185.206 35.7019 184.733 36.1972 184.183 36.1972C183.631 36.1972 183.159 35.7019 183.159 35.1245V10.9733L173.037 26.3881C172.801 26.7596 172.525 26.9239 172.171 26.9239C171.816 26.9239 171.54 26.7596 171.305 26.3881L161.183 10.9733V35.1668C161.183 35.743 160.75 36.1972 160.199 36.1972C159.647 36.1972 159.214 35.7436 159.214 35.1668V8.12903C159.214 7.55279 159.686 7.05752 160.238 7.05752H160.434ZM109.083 7.18075C109.595 7.18075 110.029 7.63377 110.029 8.17011C110.029 8.70645 109.595 9.15946 109.083 9.15946H100.261V35.1257C100.261 35.7019 99.7888 36.1972 99.2371 36.1972C98.6865 36.1972 98.2132 35.7019 98.2132 35.1257V9.15946H89.391C88.8796 9.15946 88.4462 8.70704 88.4462 8.17011C88.4462 7.63435 88.8791 7.18075 89.391 7.18075H109.083ZM68.5993 6.89263C69.308 6.89263 69.7022 7.30515 69.9769 7.92424L81.7132 34.5483C81.8315 34.7959 81.8707 35.0019 81.8707 35.2084C81.8707 35.7436 81.4379 36.1972 80.8856 36.1972C80.4135 36.1972 80.0591 35.8263 79.8623 35.3727L76.6331 27.9537H60.3675L57.1378 35.4144C56.941 35.9085 56.6264 36.1972 56.1532 36.1972C55.6412 36.1972 55.2078 35.7853 55.2078 35.29C55.2084 35.1251 55.2482 34.878 55.3665 34.631L67.1414 7.92424C67.4173 7.30515 67.8109 6.89263 68.5202 6.89263H68.5993ZM132.436 8.62371C125.622 8.62371 120.739 14.3938 120.739 21.5235V21.6068C120.739 28.7371 125.701 34.5893 132.515 34.5893C139.327 34.5893 144.211 28.8193 144.211 21.689V21.6068C144.211 14.4765 139.248 8.62371 132.436 8.62371ZM68.5197 9.32494L61.2338 26.0167H75.7663L68.5197 9.32494ZM24.007 20.2619C24.2936 21.6497 23.4508 23.0169 22.1247 23.3174C20.7987 23.6172 19.4922 22.7352 19.2051 21.3474C18.9191 19.9597 19.7613 18.5924 21.0874 18.2919C22.4135 17.9921 23.72 18.8741 24.007 20.2619ZM15.6471 13.8418L15.6101 13.8447C15.4511 13.8563 15.293 13.8686 15.1358 13.8818L14.5741 13.9325L14.0207 13.9897C13.9292 13.9998 13.838 14.0102 13.7472 14.0208L13.2069 14.0877C13.1176 14.0994 13.0287 14.1113 12.9402 14.1235L12.4137 14.1998L12.2047 14.2329L12.2786 14.5216C12.3942 14.9612 12.5194 15.408 12.6542 15.861L12.8205 16.4076L12.9071 16.683L13.0872 17.2379C13.1368 17.3877 13.1874 17.5381 13.239 17.689C13.5123 17.213 13.7952 16.7358 14.0872 16.2586L14.2737 15.9557C14.7233 15.2306 15.1818 14.5254 15.6471 13.8418Z" fill="#393939"/>
</g>
</svg>
