<svg width="185" height="46" viewBox="0 0 185 46" fill="none" xmlns="http://www.w3.org/2000/svg">
<g id="Group">
<path id="Vector" d="M75.1019 17.3093C80.6101 17.3093 81.8431 20.5404 81.8431 24.269V27.9828H72.2445V28.8741C72.2814 30.939 73.0198 31.756 75.6335 31.756C77.4165 31.747 79.1882 31.4717 80.8907 30.939L81.5626 34.2071C79.5358 34.9421 77.3967 35.3142 75.2422 35.3065C69.8448 35.3065 67.9694 32.7885 67.9694 28.6216V24.0536C67.9694 20.3992 69.5938 17.3093 75.1019 17.3093ZM111.296 17.3019C116.694 17.3019 118.288 19.2182 118.288 23.5485L118.274 34.9499H114.744L114.427 33.7763C112.904 34.7733 111.127 35.3047 109.31 35.3064C106.172 35.3064 104.828 33.1376 104.828 30.1591C104.828 26.6458 106.349 25.294 109.842 25.294H113.969V23.4817C113.969 21.5654 113.437 20.8894 110.683 20.8894C109.081 20.9073 107.486 21.087 105.921 21.4242L105.389 18.119C107.314 17.5841 109.3 17.3094 111.296 17.3019ZM139.908 17.3019C145.8 17.3019 147.387 20.5701 147.387 24.1205V28.4879C147.395 32.0383 145.8 35.3064 139.908 35.3064C134.001 35.3064 132.428 32.0383 132.428 28.4879V24.1205C132.428 20.5701 134.015 17.3019 139.908 17.3019ZM71.58 11.3004V15.2445H65.0086V34.9499H60.5784L60.5637 15.2445H53.9997V11.3004H71.58ZM128.264 9.88167C129.511 9.87747 130.753 10.0449 131.955 10.3794L131.505 13.7144C130.692 13.5384 129.863 13.4439 129.032 13.4321C127.341 13.4321 127.09 14.1749 127.09 15.4896V17.6584H131.468L131.224 21.1048H127.097V34.9499H122.792V21.1048H120.038V17.6584H122.792V15.2445C122.792 11.6569 124.454 9.88167 128.264 9.88167ZM173.99 19.1514C176.138 18.0443 178.498 17.4137 180.909 17.3019C183.766 17.3019 184.792 19.3222 184.792 22.4121V34.9499H180.488V22.88C180.488 21.959 180.096 21.4985 179.114 21.4985C177.534 21.6738 176.007 22.1798 174.633 22.984V34.9499H170.298V22.88C170.298 21.959 169.907 21.4985 168.925 21.4985C167.347 21.6872 165.824 22.1922 164.443 22.984V34.9499H160.139V17.6584H163.424L163.845 19.144C165.991 18.0521 168.34 17.4246 170.741 17.3019C172.102 17.1727 173.399 17.911 173.99 19.1514ZM92.9111 17.3019L93.3541 21.2831C91.7686 22.003 90.2405 22.8448 88.7837 23.8011V34.9425H84.4791V17.6584H88.1118L88.3924 19.5748C89.793 18.6211 91.3123 17.8569 92.9111 17.3019ZM103.44 17.3019L103.868 21.2831C102.288 22.0035 100.765 22.8453 99.3127 23.8011V34.9425H95.008V17.6584H98.6408L98.9213 19.5748C100.322 18.6211 101.841 17.8569 103.44 17.3019ZM158.042 17.3019L158.47 21.2831C156.889 22.0035 155.366 22.8453 153.914 23.8011V34.9425H149.61V17.6584H153.242L153.523 19.5748C154.923 18.6209 156.443 17.8567 158.042 17.3019ZM113.969 28.4136H110.794C109.384 28.4136 108.993 28.8073 108.993 30.1145C108.993 31.4218 109.384 31.8526 110.72 31.8526C111.861 31.8351 112.978 31.5285 113.969 30.9613V28.4136ZM139.908 20.9934C137.611 20.9934 136.733 22.0259 136.733 23.9645V28.6142C136.733 30.5676 137.619 31.5852 139.908 31.5852C142.196 31.5852 143.083 30.5528 143.083 28.6142V23.9793C143.083 22.0259 142.204 20.9934 139.908 20.9934ZM75.1388 20.8523C73.0198 20.8523 72.2814 21.9887 72.2814 23.6228V24.4993H77.7526V23.6228C77.7526 21.9887 77.2579 20.8523 75.1388 20.8523Z" fill="#393939"/>
<g id="Group_2">
<path id="Vector_2" d="M27.0571 29.7952L39.1662 22.7687V8.69336L27.0571 15.7347V29.7952Z" fill="#393939"/>
<path id="Vector_3" d="M13.619 8.69326L25.728 15.7346V29.7951L13.619 22.7611V8.69326ZM0.180847 14.9102L12.2899 21.9441V7.87622L0.180847 0.842285V14.9102ZM13.619 38.3739L25.728 45.4079V31.34L13.619 24.3061" fill="#393939"/>
</g>
</g>
</svg>
