<svg width="185" height="38" viewBox="0 0 185 38" fill="none" xmlns="http://www.w3.org/2000/svg">
<g id="Group">
<path id="Vector" d="M94.4444 23.1577C94.4444 25.2123 93.7595 26.9556 92.3898 28.3254C90.5842 30.1309 87.658 31.1271 84.1091 31.0648C81.5564 31.0026 79.0037 30.38 77.5717 29.5083L78.5057 24.4029C80.0622 25.2746 82.7394 26.1462 84.7317 26.1462C86.4128 26.1462 87.4712 25.3991 87.4712 24.1539C87.4712 23.0332 86.6618 22.2861 84.6695 21.2899C81.4942 19.7334 79.9377 17.7411 79.9377 15.3751C79.9377 10.7679 83.9223 7.59256 89.8371 7.59256C92.9501 7.59256 95.0047 8.33969 96.1254 9.08682L95.1915 14.1299C94.3199 13.4451 92.0162 12.5112 89.5258 12.5112C87.7825 12.5112 86.6618 13.2583 86.6618 14.4412C86.6618 15.3129 87.5335 16.06 89.339 16.9939C91.7672 18.2391 94.4444 20.0447 94.4444 23.1577ZM184.909 27.8895C185.034 26.333 183.913 25.0878 182.357 25.0878C180.8 25.0878 179.43 26.333 179.306 27.8895C179.181 29.3215 180.177 30.6913 181.858 30.6913C183.415 30.6913 184.785 29.4461 184.909 27.8895ZM184.536 27.8895C184.411 29.197 183.228 30.3177 181.858 30.3177C180.551 30.3177 179.617 29.2593 179.742 27.9518C179.866 26.6443 181.049 25.5236 182.419 25.5236C183.664 25.5236 184.598 26.5821 184.536 27.8895ZM182.606 28.2631L183.041 29.5706H182.606L182.17 28.3254H181.547L181.298 29.5706H180.862L181.485 26.2708H182.543C183.041 26.2708 183.415 26.6443 183.415 27.0802C183.477 27.516 183.166 28.0763 182.606 28.2631ZM182.606 26.6443H181.858L181.609 27.8895H182.294C182.668 27.8895 182.979 27.5782 183.041 27.2047C183.104 26.9556 182.917 26.6443 182.606 26.6443ZM170.465 25.8972C173.266 25.8972 175.695 25.2123 178.31 23.7181L177.251 29.3215C174.076 30.9403 170.34 31.1271 168.908 31.1271C162.682 31.1271 159.196 27.7028 159.196 21.6635C159.196 18.1769 160.503 14.6903 162.682 12.1376C165.048 9.33586 168.597 7.71708 172.27 7.71708C176.94 7.71708 180.115 10.4566 180.115 14.5035C180.115 16.3713 179.493 17.9278 178.31 19.1108C176.068 21.2899 170.527 22.5351 165.546 21.539C165.235 24.2784 167.352 25.8972 170.465 25.8972ZM166.169 17.1184C170.091 17.1807 172.27 16.7449 173.266 15.811C174.325 14.7525 173.951 12.5734 171.399 12.5734C168.535 12.5734 166.667 14.9393 166.169 17.1184ZM140.019 18.0524L137.591 30.629H131.24L132.05 26.2708C131.178 28.948 128.999 31.1271 125.326 31.1271C120.905 31.1271 118.913 27.2047 118.913 23.2823C118.913 18.7995 120.656 14.379 123.582 11.4527C126.073 8.96229 129.248 7.65482 132.797 7.65482C139.085 7.71708 141.14 11.9508 140.019 18.0524ZM133.855 15.1884C133.793 13.6318 132.922 12.7602 131.49 12.7602C128.376 12.7602 125.637 18.1769 125.637 21.9125C125.637 24.2784 126.509 25.7104 128.003 25.7104C130.431 25.7104 132.548 23.1577 133.233 19.4844C133.544 18.2391 133.918 16.1845 133.855 15.1884ZM37.6004 18.0524L35.1722 30.629H28.8216L29.631 26.2708C28.7594 28.948 26.5802 31.1271 22.9068 31.1271C18.4863 31.1271 16.494 27.2047 16.494 23.2823C16.494 18.7995 18.2373 14.379 21.1635 11.4527C23.654 8.96229 26.8293 7.65482 30.3781 7.65482C36.6665 7.71708 38.7833 11.9508 37.6004 18.0524ZM31.4988 15.1884C31.4366 13.6318 30.5649 12.7602 29.1329 12.7602C26.0199 12.7602 23.2804 18.1769 23.2804 21.9125C23.2804 24.2784 24.1521 25.7104 25.6463 25.7104C28.0745 25.7104 30.1914 23.1577 30.8762 19.4844C31.1253 18.2391 31.4988 16.1845 31.4988 15.1884ZM118.477 16.2468C118.477 21.7257 115.862 27.3292 111.13 29.8196C109.387 30.7535 107.706 31.1271 106.274 31.1271C103.908 31.1271 102.601 30.2555 101.853 28.8857L100.172 37.8513H93.5105L99.1762 8.09065H105.029L104.344 11.7018C106.025 9.2736 108.453 7.65482 111.255 7.65482C115.613 7.65482 118.477 11.0169 118.477 16.2468ZM111.566 16.7449C111.566 15.6865 111.317 13.1338 108.889 13.1338C106.398 13.1338 104.282 15.9355 103.472 20.2315C103.161 21.7257 102.414 26.084 105.465 26.084C108.951 26.084 111.566 21.1031 111.566 16.7449ZM9.58306 13.0715L10.517 8.09065H4.66446L0.306213 31.0648H6.96811L8.77367 21.6012C9.8321 15.9978 13.0074 13.7564 17.6147 14.5035L18.9222 7.65482C14.9375 7.219 11.2018 9.46038 9.58306 13.0715ZM63.065 30.629L65.3686 18.5504L70.1005 30.629H77.2604L72.3418 18.4882L81.2451 8.09065H73.9606L65.3686 18.3637L68.6685 0.930664H62.0688L56.4031 30.6913H63.065V30.629ZM155.771 7.71708C147.428 7.71708 141.14 13.8186 141.14 21.9125C141.14 27.516 144.876 31.1271 150.604 31.1271C153.094 31.1271 155.46 30.6913 157.016 29.9442L158.075 24.3407C156.02 25.3369 154.401 25.7727 152.471 25.7727C150.355 25.7727 148.113 24.5897 148.113 21.1654C148.113 17.1807 150.915 13.0715 155.709 13.0715C157.141 13.0715 158.324 13.3828 159.382 13.9432L160.441 8.52647C159.196 8.02838 157.452 7.71708 155.771 7.71708ZM53.3523 7.71708C45.0094 7.71708 38.7211 13.8186 38.7211 21.9125C38.7211 27.516 42.4567 31.1271 48.1847 31.1271C50.6751 31.1271 53.041 30.6913 54.5975 29.9442L55.656 24.3407C53.6014 25.3369 51.9826 25.7727 50.0525 25.7727C47.9357 25.7727 45.6943 24.5897 45.6943 21.1654C45.6943 17.1807 48.496 13.0715 53.2901 13.0715C54.7221 13.0715 55.905 13.3828 56.9635 13.9432L58.0219 8.52647C56.7767 8.02838 55.0334 7.71708 53.3523 7.71708Z" fill="#393939"/>
</g>
</svg>
